<svg width="500" height="500" viewBox="0 0 500 500" fill="none" xmlns="http://www.w3.org/2000/svg">
<path d="M400 0C455.228 0 500 44.7715 500 100V400C500 455.228 455.228 500 400 500H100C44.7715 500 8.0543e-07 455.228 0 400V100C0 44.7715 44.7715 8.05332e-07 100 0H400ZM117.298 352.906C117.054 352.963 117.091 352.981 117.094 353.28C114.045 363.354 110.926 373.107 107.98 382.912C107.002 386.168 106.468 389.558 106 392.821C109.494 391.774 112.71 390.763 115.945 389.815C126.146 386.826 136.353 383.861 146.558 380.887C146.265 380.596 145.972 380.306 145.667 379.746C145.655 379.477 145.532 379.63 145.532 379.63C145.264 379.603 145.054 379.477 144.891 379.006C144.877 378.76 144.752 378.866 144.752 378.866C144.493 378.855 144.284 378.747 144.056 378.348C143.987 378.153 143.93 378.153 143.93 378.153C143.676 378.111 143.483 377.979 143.352 377.524C143.354 377.289 143.206 377.382 143.206 377.382C142.947 377.35 142.746 377.225 142.587 376.78C142.571 376.563 142.458 376.618 142.449 376.622C142.186 376.585 141.988 376.452 141.897 375.955C141.938 375.691 141.736 375.845 141.732 375.848C141.466 375.826 141.257 375.705 141.129 375.217C141.154 374.948 140.952 375.113 140.952 375.113C140.691 375.082 140.487 374.956 140.323 374.506C140.303 374.277 140.189 374.349 140.189 374.349C139.932 374.327 139.728 374.21 139.53 373.792C139.481 373.586 139.404 373.613 139.404 373.613C139.153 373.583 138.956 373.463 138.754 373.059C138.693 372.864 138.635 372.857 138.635 372.857C138.389 372.833 138.194 372.721 137.979 372.332C137.909 372.142 137.844 372.143 137.844 372.143C137.415 371.789 136.985 371.434 136.469 370.854C136.381 370.629 136.319 370.603 136.319 370.603C136.079 370.553 135.898 370.421 135.729 370.016C135.681 369.824 135.627 369.816 135.627 369.816C135.375 369.799 135.176 369.686 134.968 369.285C134.906 369.101 134.85 369.089 134.845 369.088C134.599 369.05 134.407 368.927 134.212 368.524C134.152 368.331 134.094 368.32 134.094 368.32C133.852 368.297 133.661 368.188 133.438 367.803C133.357 367.614 133.291 367.581 133.291 367.581C133.055 367.539 132.874 367.416 132.687 367.022C132.627 366.839 132.569 366.81 132.565 366.809C132.326 366.785 132.136 366.674 131.924 366.288C131.85 366.101 131.785 366.072 131.784 366.071C131.549 366.034 131.365 365.916 131.165 365.528C131.096 365.34 131.032 365.313 131.032 365.313C130.796 365.284 130.609 365.172 130.399 364.787C130.325 364.599 130.258 364.57 130.258 364.57C130.025 364.531 129.843 364.414 129.642 364.029C129.571 363.841 129.504 363.813 129.504 363.813C129.27 363.775 129.086 363.656 128.887 363.269C128.819 363.079 128.755 363.05 128.755 363.05C128.515 362.999 128.331 362.869 128.169 362.459C128.133 362.267 128.063 362.275 128.059 362.275C127.802 362.241 127.604 362.115 127.486 361.648C127.508 361.399 127.318 361.525 127.318 361.525C127.06 361.489 126.858 361.362 126.733 360.886C126.752 360.634 126.572 360.764 126.562 360.771C126.309 360.74 126.107 360.62 125.894 360.217C125.83 360.02 125.765 360.031 125.765 360.031C125.522 359.987 125.334 359.862 125.134 359.463C125.068 359.27 125.006 359.252 125.006 359.252C124.77 359.23 124.582 359.123 124.358 358.743C124.276 358.564 124.21 358.515 124.204 358.511C123.977 358.471 123.8 358.354 123.601 357.977C123.528 357.791 123.462 357.753 123.462 357.753C123.235 357.722 123.054 357.613 122.83 357.245C122.745 357.071 122.676 357.017 122.67 357.013C122.442 356.956 122.267 356.825 122.095 356.436C122.042 356.248 121.981 356.235 121.981 356.235C121.743 356.208 121.554 356.097 121.335 355.713C121.255 355.524 121.189 355.485 121.189 355.485C120.952 355.442 120.772 355.317 120.594 354.92C120.539 354.73 120.479 354.721 120.479 354.721C120.247 354.707 120.058 354.608 119.807 354.241C119.705 354.063 119.63 353.992 119.625 353.987C119.4 353.933 119.229 353.805 119.07 353.419C119.031 353.241 118.971 353.24 118.965 353.24C118.491 353.11 118.016 352.98 117.298 352.906ZM130.627 312.798C130.301 312.833 129.974 312.868 129.456 313.254C127.227 320.159 125.192 326.713 123.155 333.267C122.812 334.716 122.468 336.165 121.896 337.729C121.677 337.838 121.759 337.857 121.766 337.858C121.373 339.381 120.98 340.904 120.419 342.66C120.25 342.893 120.233 343.063 120.213 343.364C120.157 345.26 119.415 347.553 120.194 348.342C130.094 358.358 140.164 368.207 150.351 377.932C151.347 378.883 153.524 379.283 154.946 378.978C159.215 378.059 163.36 376.583 167.592 375.475C174.092 373.772 180.625 372.193 188.011 370.345C180.329 362.486 173.174 355.166 166.02 347.847C166.022 347.845 166.04 347.829 166.041 347.817C165.332 347.188 164.621 346.571 163.829 345.73C163.773 345.576 163.788 345.506 163.804 345.49C163.809 345.493 163.815 345.496 163.82 345.498C163.818 345.486 163.811 345.483 163.804 345.49C163.575 345.391 163.337 345.251 163.048 344.91C163.02 344.805 163.026 344.755 163.036 344.736C162.552 344.399 162.089 344.029 161.56 343.444C161.518 343.311 161.538 343.229 161.552 343.197C161.553 343.198 161.554 343.199 161.555 343.199C161.566 343.178 161.56 343.178 161.552 343.197C161.035 342.867 160.547 342.482 159.952 341.885C150.849 332.799 141.855 323.925 132.842 314.716C132.824 314.387 132.728 314.582 132.724 314.591C132.259 314.19 131.794 313.788 131.097 313.176C130.87 312.97 130.639 312.807 130.627 312.798ZM286.434 152.653C286.076 153.12 285.717 153.586 285.111 154.091C284.862 154.129 284.919 154.141 284.919 154.141C284.785 154.36 284.65 154.579 284.314 154.836C284.114 154.873 284.164 154.896 284.164 154.896C284.03 155.121 283.895 155.346 283.475 155.88C279.702 159.529 276.216 162.868 272.729 166.207C272.65 166.462 272.57 166.717 272.27 166.991C272.048 167.01 272.125 167.033 272.125 167.033C271.98 167.245 271.835 167.457 271.476 167.696C271.261 167.724 271.312 167.751 271.312 167.751C271.2 167.998 271.087 168.245 270.805 168.531C270.634 168.57 270.65 168.632 270.65 168.632C270.528 168.848 270.405 169.064 270.097 169.331C269.91 169.382 269.851 169.368 269.866 169.342C269.754 169.558 269.627 169.801 269.289 170.083C269.151 170.109 269.087 170.088 269.069 170.073C268.961 170.287 268.814 170.495 268.472 170.749C268.342 170.78 268.282 170.77 268.262 170.764C268.179 171.027 268.07 171.274 267.763 171.577C267.637 171.612 267.58 171.596 267.563 171.583C267.45 171.798 267.3 172.006 266.955 172.266C266.829 172.299 266.773 172.288 266.756 172.279C266.673 172.539 266.564 172.788 266.256 173.094C266.13 173.13 266.076 173.114 266.061 173.101C265.944 173.314 265.791 173.521 265.443 173.777C265.315 173.811 265.26 173.799 265.242 173.791C265.136 174.022 265.002 174.242 264.68 174.521C264.49 174.58 264.459 174.528 264.485 174.543C264.38 174.779 264.248 175 263.926 175.277C263.804 175.314 263.746 175.306 263.727 175.3C263.622 175.537 263.491 175.757 263.17 176.034C262.98 176.09 262.945 176.04 262.971 176.056C262.866 176.292 262.735 176.513 262.414 176.79C262.223 176.846 262.189 176.795 262.215 176.812C262.11 177.049 261.979 177.269 261.657 177.547C261.467 177.603 261.433 177.552 261.46 177.567C261.355 177.804 261.223 178.026 260.9 178.305C260.71 178.362 260.679 178.31 260.706 178.324C260.6 178.56 260.467 178.781 260.144 179.062C260.021 179.099 259.966 179.089 259.949 179.082C259.843 179.316 259.71 179.537 259.387 179.818C259.27 179.856 259.216 179.847 259.198 179.84C259.115 180.099 259.004 180.348 258.696 180.653C258.583 180.686 258.533 180.675 258.515 180.663C258.419 180.91 258.287 181.148 257.951 181.428C257.819 181.455 257.764 181.436 257.748 181.421C257.649 181.658 257.515 181.892 257.178 182.167C257.049 182.194 256.995 182.177 256.979 182.163C256.882 182.402 256.751 182.637 256.419 182.917C256.291 182.946 256.237 182.93 256.221 182.916C256.124 183.157 255.994 183.393 255.662 183.678C255.534 183.708 255.481 183.691 255.465 183.676C255.369 183.912 255.236 184.148 254.904 184.435C254.785 184.466 254.73 184.452 254.712 184.437C254.616 184.672 254.48 184.906 254.148 185.19C254.029 185.222 253.975 185.208 253.957 185.192C253.863 185.43 253.728 185.666 253.396 185.952C253.277 185.984 253.222 185.969 253.204 185.953C253.106 186.186 252.967 186.416 252.632 186.693C252.51 186.723 252.458 186.708 252.441 186.694C252.347 186.935 252.216 187.173 251.886 187.454C251.759 187.483 251.705 187.467 251.688 187.453C251.593 187.695 251.463 187.932 251.131 188.213C251.005 188.24 250.951 188.224 250.934 188.211C250.841 188.455 250.713 188.694 250.383 188.977C250.256 189.004 250.201 188.988 250.184 188.974C250.089 189.215 249.959 189.452 249.627 189.734C249.491 189.766 249.435 189.746 249.421 189.731C249.307 189.944 249.158 190.155 248.814 190.415C248.686 190.449 248.63 190.436 248.613 190.427C248.508 190.659 248.375 190.882 248.051 191.163C247.93 191.201 247.875 191.19 247.858 191.182C247.753 191.415 247.619 191.638 247.295 191.919C247.176 191.956 247.123 191.946 247.105 191.938C247.024 192.198 246.915 192.448 246.606 192.749C246.481 192.782 246.419 192.763 246.398 192.749C246.29 192.974 246.141 193.183 245.793 193.437C245.591 193.483 245.559 193.431 245.587 193.444C245.501 193.703 245.386 193.948 245.074 194.251C244.958 194.285 244.907 194.272 244.891 194.26C244.793 194.501 244.661 194.738 244.328 195.021C244.2 195.052 244.146 195.034 244.131 195.019C244.033 195.255 243.899 195.49 243.565 195.771C243.441 195.802 243.388 195.786 243.371 195.771C243.277 196.01 243.145 196.247 242.814 196.534C242.691 196.566 242.638 196.549 242.622 196.533C242.527 196.772 242.393 197.006 242.06 197.286C241.932 197.315 241.878 197.299 241.862 197.285C241.768 197.527 241.638 197.765 241.309 198.054C241.187 198.085 241.133 198.067 241.115 198.051C241.021 198.289 240.885 198.524 240.551 198.808C240.429 198.838 240.375 198.821 240.357 198.805C240.267 199.046 240.136 199.285 239.806 199.569C239.685 199.598 239.63 199.582 239.612 199.567C239.52 199.812 239.388 200.05 239.055 200.331C238.844 200.377 238.895 200.404 238.801 200.661C234.429 205.139 230.159 209.366 225.873 213.578C220.891 218.475 215.895 223.359 210.905 228.249C210.778 228.495 210.652 228.742 210.312 229.006C210.098 229.023 210.171 229.058 210.171 229.058C210.015 229.263 209.859 229.468 209.487 229.694C209.271 229.716 209.325 229.748 209.325 229.748C209.194 229.969 209.062 230.19 208.724 230.44C208.516 230.471 208.569 230.504 208.569 230.504C208.437 230.723 208.305 230.943 207.967 231.193C207.761 231.225 207.812 231.259 207.812 231.259C207.707 231.508 207.602 231.757 207.287 232.03C207.076 232.055 207.153 232.083 207.153 232.083C206.996 232.289 206.837 232.495 206.467 232.724C206.254 232.747 206.311 232.77 206.311 232.77C206.176 232.992 206.041 233.214 205.703 233.469C205.5 233.501 205.556 233.525 205.556 233.525C205.42 233.748 205.285 233.97 204.948 234.226C204.75 234.258 204.802 234.28 204.804 234.28C204.695 234.531 204.587 234.782 204.264 235.056C204.058 235.077 204.121 235.104 204.126 235.106C203.969 235.309 203.812 235.513 203.44 235.738C203.231 235.76 203.274 235.793 203.276 235.795C203.173 236.044 203.069 236.294 202.745 236.56C202.524 236.576 202.61 236.621 202.61 236.621C202.456 236.825 202.301 237.03 201.93 237.254C201.719 237.273 201.763 237.306 201.766 237.308C201.657 237.553 201.548 237.799 201.23 238.063C201.023 238.082 201.095 238.118 201.095 238.118C200.97 238.36 200.844 238.603 200.502 238.858C200.294 238.871 200.352 238.889 200.357 238.891C200.224 239.127 200.091 239.363 199.737 239.608C199.517 239.617 199.592 239.639 199.592 239.639C199.466 239.881 199.339 240.123 198.996 240.378C198.78 240.391 198.865 240.41 198.865 240.41C198.727 240.647 198.589 240.884 198.231 241.13C198.012 241.139 198.088 241.154 198.088 241.154C197.955 241.393 197.822 241.632 197.472 241.881C197.261 241.891 197.325 241.905 197.329 241.906C197.196 242.145 197.063 242.383 196.713 242.633C196.504 242.644 196.567 242.658 196.572 242.659C196.439 242.898 196.305 243.136 195.988 243.442C195.805 243.51 195.816 243.568 195.706 243.789C188.442 251.112 181.287 258.214 174.132 265.316C173.911 265.53 173.69 265.743 173.232 265.98C173 266.004 173.044 266.035 173.046 266.036C172.913 266.258 172.78 266.479 172.44 266.73C172.234 266.76 172.29 266.79 172.29 266.79C172.186 267.041 172.082 267.292 171.775 267.569C171.572 267.596 171.645 267.625 171.645 267.625C171.512 267.864 171.379 268.104 171.024 268.358C170.806 268.374 170.877 268.383 170.88 268.383C170.719 268.587 170.558 268.791 170.185 269.018C169.981 269.039 170.027 269.059 170.031 269.061C169.896 269.284 169.761 269.507 169.43 269.755C169.234 269.78 169.272 269.842 169.272 269.842C168.412 270.79 167.552 271.737 166.439 272.769C166.193 272.85 166.236 272.841 166.238 272.841C166.107 273.063 165.976 273.285 165.636 273.534C165.426 273.562 165.481 273.597 165.481 273.597C165.35 273.818 165.219 274.041 164.905 274.323C164.723 274.384 164.723 274.407 164.622 274.635C157.765 281.668 151.009 288.474 144.063 295.409C143.521 296.196 143.169 296.854 142.816 297.511C143.82 298.372 144.825 299.233 145.819 300.436C145.81 300.772 145.976 300.549 145.981 300.542C148.146 302.594 150.31 304.647 152.544 306.924C152.835 307.376 153.057 307.604 153.334 308.072C153.368 308.218 153.358 308.277 153.35 308.295C153.348 308.294 153.346 308.294 153.345 308.293C153.341 308.303 153.344 308.307 153.35 308.295C153.584 308.402 153.808 308.536 154.089 308.862C154.145 309.057 154.117 309.031 154.135 309.024C155.316 309.936 156.596 310.739 157.624 311.79C172.664 327.17 187.671 342.582 202.641 357.94C247.765 312.904 292.088 268.667 336.671 224.372C336.93 224.313 336.846 224.325 336.846 224.325C336.988 224.084 337.131 223.843 337.499 223.594C337.725 223.586 337.612 223.594 337.612 223.594C337.758 223.325 337.904 223.055 338.382 222.46C341.745 218.928 344.776 215.721 348.401 211.886C347.311 211.168 346.348 210.739 345.651 210.043C335.105 199.506 324.593 188.935 313.852 178.276C308.262 172.765 302.893 167.348 297.537 161.893C297.549 161.856 297.618 161.835 297.625 161.833C297.379 161.701 297.132 161.569 296.885 161.213C296.884 160.991 296.871 161.075 296.871 161.076C296.625 160.943 296.38 160.81 296.133 160.454C296.131 160.231 296.118 160.318 296.118 160.318C295.874 160.183 295.629 160.048 295.383 159.691C295.38 159.478 295.369 159.551 295.368 159.557C295.123 159.422 294.878 159.288 294.63 158.931C294.627 158.717 294.619 158.788 294.618 158.795C294.374 158.66 294.129 158.525 293.881 158.171C293.877 157.951 293.865 158.041 293.865 158.041C293.617 157.909 293.369 157.776 293.117 157.414C293.116 157.338 293.116 157.298 293.117 157.278C293.119 157.279 293.121 157.28 293.123 157.281C293.123 157.277 293.119 157.241 293.117 157.278C292.844 157.142 292.568 157.003 291.957 156.573C289.893 155.073 288.169 153.869 286.435 152.656C286.434 152.656 286.434 152.654 286.434 152.653ZM357.815 109.605C351.446 106.463 344.675 106.739 337.871 107.487C336.534 107.922 335.197 108.356 333.468 109.008C332.63 109.319 332.184 109.415 331.586 109.538C331.436 109.566 331.133 109.562 331.122 109.562C330.965 109.773 330.808 109.984 330.438 110.23C330.229 110.265 330.26 110.306 330.262 110.309C330.224 110.574 330.093 110.78 329.448 111.037C326.515 113.156 324.003 115.164 321.491 117.173C319.55 119.348 317.608 121.523 315.438 123.798C315.061 124.119 314.912 124.341 314.569 124.626C314.448 124.666 314.397 124.659 314.381 124.651C314.271 124.88 314.136 125.101 313.811 125.381C313.691 125.419 313.639 125.411 313.622 125.404C313.528 125.657 313.408 125.9 313.092 126.2C312.977 126.234 312.927 126.221 312.911 126.207C312.814 126.447 312.68 126.683 312.345 126.966C312.219 126.995 312.167 126.978 312.151 126.963C312.054 127.2 311.919 127.435 311.584 127.717C311.458 127.746 311.407 127.73 311.392 127.715C311.294 127.952 311.161 128.188 310.827 128.471C310.7 128.501 310.649 128.484 310.635 128.47C310.534 128.703 310.398 128.934 310.062 129.213C309.936 129.243 309.886 129.229 309.871 129.217C309.772 129.453 309.641 129.689 309.311 129.973C309.186 130.004 309.135 129.99 309.12 129.978C309.02 130.214 308.888 130.449 308.557 130.731C308.432 130.762 308.381 130.748 308.365 130.735C308.266 130.973 308.134 131.208 307.803 131.491C307.677 131.522 307.626 131.507 307.611 131.493C307.511 131.728 307.376 131.961 307.042 132.24C306.916 132.27 306.865 132.256 306.851 132.243C306.753 132.483 306.622 132.721 306.292 133.005C306.166 133.035 306.115 133.019 306.1 133.006C305.998 133.24 305.863 133.472 305.528 133.749C305.4 133.778 305.348 133.763 305.333 133.751C305.233 133.987 305.1 134.22 304.769 134.499C304.639 134.529 304.587 134.514 304.572 134.502C304.47 134.737 304.338 134.968 304.006 135.245C303.879 135.275 303.826 135.261 303.81 135.25C303.71 135.49 303.582 135.723 303.253 136.003C303.129 136.032 303.075 136.019 303.058 136.008C302.959 136.249 302.829 136.484 302.499 136.762C302.37 136.79 302.316 136.775 302.299 136.764C302.198 137.002 302.065 137.233 301.733 137.513C301.638 137.536 301.59 137.535 301.568 137.529C301.741 138.131 301.89 138.716 302.145 139.514C302.249 139.725 302.261 139.739 302.268 139.743C302.539 139.754 302.752 139.863 302.975 140.247C303.26 140.561 303.483 140.702 303.764 141.037C303.8 141.159 303.791 141.212 303.784 141.229C303.783 141.229 303.782 141.229 303.781 141.229C303.778 141.238 303.78 141.239 303.784 141.229C304.026 141.333 304.257 141.461 304.546 141.785C304.58 141.902 304.57 141.951 304.56 141.967C304.556 141.965 304.552 141.963 304.549 141.962C304.547 141.974 304.553 141.977 304.56 141.967C304.797 142.068 305.031 142.2 305.32 142.528C305.354 142.649 305.34 142.698 305.327 142.713C305.322 142.711 305.317 142.708 305.312 142.706C305.312 142.719 305.318 142.723 305.327 142.713C305.56 142.814 305.792 142.949 306.079 143.279C306.112 143.394 306.101 143.443 306.089 143.46C306.084 143.458 306.079 143.455 306.074 143.453C306.072 143.468 306.08 143.473 306.089 143.46C306.328 143.558 306.563 143.692 306.849 144.023C306.88 144.147 306.865 144.198 306.852 144.214C306.847 144.212 306.842 144.209 306.837 144.207C306.836 144.22 306.843 144.224 306.852 144.214C307.088 144.312 307.322 144.446 307.606 144.778C307.659 144.984 307.646 144.931 307.67 144.919C308.363 145.497 309.032 146.088 309.77 146.893C310.07 147.281 310.302 147.454 310.588 147.842C310.619 147.965 310.609 148.017 310.596 148.033C310.589 148.03 310.582 148.027 310.575 148.024C310.575 148.039 310.586 148.045 310.596 148.033C310.835 148.135 311.077 148.272 311.402 148.598C311.735 148.777 311.92 148.873 312.073 149.245C312.332 149.573 312.561 149.74 312.848 150.115C312.881 150.235 312.871 150.284 312.859 150.3C312.854 150.298 312.85 150.295 312.845 150.293C312.844 150.306 312.851 150.312 312.859 150.3C313.093 150.403 313.327 150.54 313.611 150.872C313.643 150.992 313.631 151.04 313.618 151.055C313.613 151.052 313.608 151.049 313.603 151.047C313.602 151.06 313.609 151.065 313.618 151.055C313.851 151.157 314.084 151.294 314.368 151.627C314.399 151.747 314.388 151.795 314.375 151.811C314.369 151.808 314.363 151.805 314.357 151.803C314.357 151.816 314.366 151.821 314.375 151.811C314.611 151.91 314.848 152.044 315.131 152.377C315.157 152.489 315.147 152.538 315.136 152.556C315.13 152.553 315.124 152.55 315.118 152.548C315.116 152.563 315.126 152.571 315.136 152.556C315.381 152.653 315.624 152.784 315.9 153.121C315.918 153.221 315.913 153.269 315.908 153.289C315.907 153.289 315.906 153.289 315.904 153.288C315.894 153.3 315.902 153.313 315.908 153.289C316.156 153.39 316.384 153.514 316.668 153.83C316.703 153.952 316.689 154.008 316.676 154.024C316.672 154.023 316.668 154.021 316.664 154.02C316.663 154.032 316.668 154.034 316.676 154.024C316.916 154.126 317.154 154.263 317.448 154.602C317.479 154.712 317.468 154.766 317.452 154.786C317.443 154.783 317.433 154.779 317.424 154.775C317.422 154.796 317.438 154.804 317.452 154.786C317.694 154.875 317.934 155.009 318.226 155.338C318.253 155.439 318.248 155.486 318.239 155.505C318.236 155.502 318.232 155.498 318.229 155.495C318.216 155.512 318.23 155.525 318.239 155.505C326.965 163.985 335.703 172.462 344.355 181.023C350.246 186.853 356.019 192.801 362.326 199.185C370.258 191.073 377.953 183.204 385.892 175.258C386.136 175.18 386.167 174.845 386.222 174.686C387.08 173.51 387.884 172.492 388.944 171.418C389.201 171.36 389.292 171.077 389.423 171.007C389.752 170.409 389.949 169.881 390.337 169.258C391.283 166.844 392.039 164.526 392.938 161.957C393.029 155.028 393.373 148.298 390.533 141.681C390.505 141.39 390.549 141.337 390.565 141.367C390.328 141.023 390.074 140.648 389.819 140.03C389.818 139.872 389.847 139.819 389.863 139.809C389.866 139.812 389.869 139.816 389.872 139.819C389.876 139.809 389.872 139.803 389.863 139.809C389.591 139.477 389.33 139.113 389.064 138.512C389.062 138.378 389.086 138.32 389.106 138.302C389.115 138.306 389.123 138.311 389.131 138.315C389.136 138.298 389.123 138.287 389.106 138.302C388.896 138.194 388.694 138.045 388.44 137.717C388.385 137.524 388.405 137.485 388.39 137.505C388.082 137.184 387.789 136.842 387.418 136.273C383.211 131.926 379.08 127.807 374.636 123.329C371.432 120.08 368.544 117.188 365.655 114.296C365.419 114.139 365.182 113.982 364.873 113.652C364.8 113.48 364.712 113.492 364.479 113.404C362.106 112.071 360.03 110.698 357.815 109.605Z" fill="url(#paint0_linear_7_1275)"/>
<defs>
<linearGradient id="paint0_linear_7_1275" x1="250" y1="0" x2="250" y2="500" gradientUnits="userSpaceOnUse">
<stop stop-color="#03BFDC"/>
<stop offset="1" stop-color="#007BFF"/>
</linearGradient>
</defs>
</svg>
