<svg width="800" height="800" viewBox="0 0 800 800" fill="none" xmlns="http://www.w3.org/2000/svg">
<path d="M608.616 420.697C608.432 422.225 608.961 423.587 607.344 424.758C603.855 422.616 600.335 420.221 596.516 418.332C579.206 409.772 561.434 408.624 543.197 414.799C540.498 415.713 537.849 416.026 535.045 415.987C526.436 415.868 517.825 415.946 509.218 415.78C505.894 415.715 504.516 416.933 504.353 420.348C504.008 427.545 503.28 434.724 502.757 441.913C502.641 443.502 502.232 444.893 501.079 446.043C492.926 454.173 484.786 462.317 476.62 470.435C476.276 470.777 475.716 470.901 474.978 471.264C474.138 467.87 475.576 465.034 476.03 462.145C478.181 448.444 480.242 434.748 480.8 420.856C480.954 417.016 479.703 415.767 475.868 415.794C454.206 415.943 432.542 415.971 410.881 415.824C406.972 415.798 405.851 417.194 405.884 420.898C406.007 434.783 405.975 448.671 405.824 462.556C405.79 465.675 407.045 466.604 409.942 466.837C425.554 468.092 441.183 469.329 456.446 473.133C460.789 474.216 465.337 474.694 470.572 477.06C464.223 483.24 458.5 488.826 452.755 494.388C451.806 495.307 450.688 494.824 449.601 494.607C436.793 492.057 423.809 490.879 410.841 489.541C407.283 489.175 405.837 490.129 405.877 493.958C406.014 507.148 405.806 520.342 405.853 533.533C405.87 538.407 404.9 542.378 401.006 546.074C393.14 553.541 387.969 562.922 384.645 573.274C384.36 574.162 384.392 575.253 383.043 575.72C381.726 574.751 382.35 573.269 382.351 572.026C382.371 546.336 382.436 520.647 382.468 494.957C382.475 489.165 382.457 489.482 376.559 489.924C359.653 491.192 342.931 493.515 326.488 497.697C325.161 498.034 323.853 498.45 322.287 498.901C322.867 503.536 324.795 507.555 326.5 511.553C337.238 536.725 351.114 559.943 372.248 577.75C379.145 583.561 382.311 589.225 381.181 598.078C380.263 605.271 382.458 612.308 384.892 619.544C380.528 620.832 376.685 619.617 372.986 619.221C333.886 615.035 298.607 600.993 266.781 577.936C238.673 557.571 216.905 531.836 201.311 500.949C189.958 478.461 183.152 454.583 180.421 429.457C177.569 403.223 179.255 377.338 185.737 351.869C196.252 310.561 217.502 275.463 248.714 246.477C280.196 217.242 317.298 199.379 359.634 192.211C383.8 188.119 407.8 188.19 431.995 192.689C461.101 198.102 488.032 208.589 512.438 225.169C561.267 258.34 592.537 303.719 604.78 361.595C608.856 380.868 610.596 400.545 608.616 420.697ZM209.332 457.867C214.766 477.676 223.593 495.884 234.912 513.203C236.428 512.376 237.533 511.834 238.578 511.196C254.948 501.189 271.816 492.172 289.89 485.592C292.526 484.632 293.029 483.322 292.381 480.573C287.665 460.568 284.333 440.345 283.941 419.743C283.878 416.433 282.382 415.868 279.575 415.871C255.421 415.9 231.266 415.893 207.112 415.754C203.58 415.734 202.42 417.048 202.711 420.43C203.783 432.884 205.593 445.2 209.332 457.867ZM247.917 393.052C258.469 393.049 269.021 393.02 279.574 393.059C282.021 393.069 283.889 392.892 283.963 389.629C284.413 369.596 287.488 349.902 291.953 330.408C292.55 327.802 292.069 326.317 289.354 325.339C273.912 319.774 259.15 312.707 244.821 304.725C241.333 302.781 237.921 300.699 234.653 298.785C232.911 299.612 232.523 301.048 231.803 302.186C215.015 328.732 205.726 357.775 202.85 388.976C202.562 392.099 203.513 393.139 206.679 393.108C220.146 392.977 233.615 393.052 247.917 393.052ZM540.417 393.047C554.16 393.039 567.903 392.995 581.646 393.056C584.395 393.068 585.734 392.401 585.418 389.246C582.677 361.873 575.376 335.885 562.015 311.741C559.572 307.325 557.344 302.717 554.085 298.678C551.699 300.028 549.726 301.043 547.855 302.217C532.733 311.708 516.469 318.805 499.787 324.974C496.667 326.128 495.923 327.371 496.65 330.726C500.822 349.982 503.858 369.419 504.395 389.158C504.483 392.407 505.9 393.069 508.766 393.041C519.037 392.942 529.311 393.027 540.417 393.047ZM333.75 415.883C326.394 415.828 319.009 416.137 311.691 415.578C307.487 415.257 306.632 416.628 306.851 420.349C307.769 436.005 309.803 451.512 312.789 466.895C314.736 476.927 314.884 477.209 324.665 474.745C342.072 470.362 359.8 468.369 377.618 466.971C381.324 466.68 382.558 465.368 382.507 461.625C382.32 448.023 382.333 434.415 382.528 420.812C382.583 416.956 381.25 415.756 377.48 415.799C363.182 415.963 348.882 415.872 333.75 415.883ZM328.138 336.651C324.913 335.851 321.633 335.223 318.48 334.201C315.553 333.253 314.404 334.463 313.867 337.094C310.343 354.344 308.023 371.751 306.915 389.323C306.749 391.956 307.595 393.095 310.385 393.085C333.125 393.005 355.865 392.992 378.605 393.035C381.521 393.04 382.487 391.771 382.475 389.004C382.418 375.277 382.42 361.55 382.497 347.823C382.513 344.999 381.812 343.646 378.578 343.456C361.834 342.476 345.225 340.356 328.138 336.651ZM465.571 335.307C447.252 340.036 428.521 341.966 409.732 343.442C407.261 343.636 405.902 344.191 405.918 347.024C405.995 361.035 405.963 375.047 405.91 389.058C405.901 391.574 407.021 392.463 409.451 392.462C432.202 392.458 454.953 392.49 477.704 392.575C480.674 392.586 481.519 391.282 481.316 388.469C480.146 372.297 478.569 356.191 474.869 340.353C473.11 332.828 474.669 332.804 465.571 335.307ZM380.921 320.052C383.193 319.02 382.362 316.945 382.366 315.296C382.445 285.727 382.466 256.159 382.457 226.59C382.456 225.346 382.999 223.84 381.491 222.829C377.289 225.885 373.323 229.125 369.619 232.681C348.275 253.174 333.418 277.777 323.459 305.491C321.285 311.54 321.385 311.7 327.607 313.09C344.956 316.966 362.457 319.664 380.921 320.052ZM407.604 223.277C404.482 223.037 406.038 225.455 406.034 226.5C405.931 254.793 405.941 283.087 405.941 311.38C405.941 320.217 405.956 320.261 414.796 319.811C430.752 319 446.387 316.069 461.954 312.652C465.527 311.867 466.814 310.652 465.357 306.724C453.275 274.138 435.752 245.359 407.604 223.277ZM535.976 282.314C537.057 281.492 538.467 281.07 539.472 279.135C511.674 247.4 477.325 226.389 435.851 216.856C437.628 219.421 439.987 221.323 442.025 223.523C462.499 245.626 477.3 271.14 487.157 299.529C488.545 303.529 490.161 304.268 494.037 302.812C508.498 297.379 522.251 290.551 535.976 282.314ZM270.572 257.65C262.967 264.666 254.996 271.328 248.747 279.968C249.577 280.615 250.171 281.177 250.853 281.595C264.242 289.814 278.338 296.612 292.951 302.334C299.081 304.735 299.2 304.633 301.409 298.388C310.289 273.279 323.142 250.451 340.545 230.254C344.408 225.77 348.566 221.539 352.588 217.192C346.361 217.978 340.464 219.36 334.762 221.312C311.303 229.343 289.942 241.158 270.572 257.65ZM295.33 507.571C279.521 514.333 264.025 521.686 249.83 531.508C263.385 553.922 332.888 594.972 353.096 592.525C352.726 592.035 352.451 591.559 352.074 591.186C328.669 568.003 312.249 540.453 301.16 509.594C300.112 506.679 298.583 505.894 295.33 507.571Z" fill="url(#paint0_linear_3_27)"/>
<path d="M597.096 480.548C594.142 465.045 584.717 456.296 569.93 453.388C560.17 451.468 551.34 454.443 544.324 461.326C536.207 469.289 527.891 477.086 520.489 485.76C519.588 486.815 518.674 488.026 517.015 487.438C508.264 484.333 499.176 483.727 490.181 484.215C489.192 482.005 490.635 481.209 491.544 480.299C503.71 468.121 515.792 455.857 528.124 443.848C543.711 428.67 566.902 424.531 586.788 433.511C605.161 441.808 617.437 455.421 620.505 475.832C623.269 494.215 619.232 511.029 605.995 524.671C591.305 539.81 576.666 555.048 561.199 569.374C536.384 592.358 499.792 586.22 481.122 561.585C475.425 554.067 475.884 551.39 482.873 545.13C484.863 543.347 487.078 542.013 489.685 541.267C495.234 539.678 496.554 540.248 499.312 545.174C506.951 558.816 527.654 566.392 543.468 552.537C559.644 538.363 574.359 522.587 589.319 507.12C596.407 499.792 598.26 490.76 597.096 480.548Z" fill="url(#paint1_linear_3_27)"/>
<path d="M399.871 586.001C401.992 574.024 407.715 564.475 416.025 556.201C429.301 542.982 442.177 529.358 455.563 516.253C479.575 492.747 518.296 496.03 538.202 523.039C539.432 524.707 540.399 526.571 541.453 528.364C542.039 529.362 542.423 530.509 541.635 531.498C538.107 535.929 534.918 540.758 528.877 542.262C524.838 543.268 522.034 542.653 519.578 538.571C509.788 522.301 487.873 519.42 473.941 532.285C470.988 535.012 468.029 537.75 465.275 540.674C454.436 552.185 442.515 562.616 431.884 574.336C420.143 587.279 420.116 607.644 431.933 619.277C445.38 632.513 464.758 632.767 478.168 619.701C485.126 612.922 491.819 605.871 498.612 598.923C499.788 597.72 500.75 596.395 502.82 597.33C509.964 600.556 517.555 600.965 525.242 600.74C526.412 600.706 527.734 600.215 528.732 601.327C529.039 602.721 527.969 603.381 527.242 604.122C516.061 615.513 505.158 627.2 493.584 638.178C469.878 660.661 431.592 657.462 411.285 631.699C400.711 618.283 397.072 603.132 399.871 586.001Z" fill="url(#paint2_linear_3_27)"/>
<defs>
<linearGradient id="paint0_linear_3_27" x1="394.259" y1="189.225" x2="394.259" y2="620.121" gradientUnits="userSpaceOnUse">
<stop stop-color="#03BFDC"/>
<stop offset="1" stop-color="#007BFF"/>
</linearGradient>
<linearGradient id="paint1_linear_3_27" x1="549.266" y1="428.814" x2="549.266" y2="583.714" gradientUnits="userSpaceOnUse">
<stop stop-color="#03BFDC"/>
<stop offset="1" stop-color="#007BFF"/>
</linearGradient>
<linearGradient id="paint2_linear_3_27" x1="470.522" y1="500.515" x2="470.522" y2="653.212" gradientUnits="userSpaceOnUse">
<stop stop-color="#03BFDC"/>
<stop offset="1" stop-color="#007BFF"/>
</linearGradient>
</defs>
</svg>
