<svg width="960" height="960" viewBox="0 0 960 960" fill="none" xmlns="http://www.w3.org/2000/svg">
<g clip-path="url(#clip0_9_1378)">
<path d="M620.45 258.767C620.45 258.767 620.756 258.825 620.94 259.262C621.854 259.965 622.585 260.232 623.316 260.499C623.316 260.499 623.336 260.569 623.369 260.938C626.378 263.054 629.354 264.8 632.33 266.546C632.33 266.546 632.165 266.673 632.291 267.01C633.437 267.815 634.457 268.283 635.477 268.752C635.912 268.994 636.347 269.235 636.955 270.033C637.85 270.946 638.57 271.302 639.291 271.658C639.291 271.658 639.305 271.919 639.348 272.095C639.929 272.514 640.468 272.756 641.007 272.998C641.007 272.998 641 273 641.044 273.346C642.368 274.478 643.647 275.263 644.926 276.049C644.926 276.049 644.986 276.004 645.096 276.256C645.43 276.777 645.714 276.93 646.062 276.966C646.062 276.966 646.005 277 646.063 277.308C646.83 277.991 647.539 278.366 648.248 278.74C648.248 278.74 648.204 278.964 648.272 279.12C648.667 279.389 648.994 279.502 649.321 279.615C649.321 279.615 649.187 279.949 649.304 280.096C649.97 280.477 650.519 280.712 651.068 280.947C651.068 280.947 651.002 280.997 651.05 281.31C653.178 283.311 655.258 284.997 657.338 286.684C657.338 286.684 657.012 286.966 657.196 287.096C657.706 287.325 658.032 287.424 658.358 287.523C658.358 287.523 658.39 287.593 658.404 287.885C658.737 288.272 659.056 288.365 659.375 288.459C659.375 288.459 659.447 288.537 659.446 288.843C659.756 289.225 660.068 289.302 660.38 289.378C660.38 289.378 660.46 289.464 660.474 289.824C661.034 290.437 661.581 290.689 662.127 290.942C662.44 291.006 662.689 291.167 662.992 291.985C665.112 294.332 667.116 296.119 669.121 297.906C669.121 297.906 669.04 297.978 669.144 298.176C669.537 298.561 669.825 298.747 670.113 298.933C670.113 298.933 670.031 298.97 670.135 299.174C670.519 299.571 670.799 299.764 671.079 299.957C671.079 299.957 671.009 299.989 671.116 300.196C671.5 300.593 671.777 300.783 672.055 300.972C672.055 300.972 672 300.998 672.042 301.287C672.535 301.886 672.986 302.196 673.437 302.507C673.437 302.507 673.453 302.586 673.453 302.873C673.763 303.261 674.073 303.362 674.382 303.462C674.382 303.462 674.443 303.549 674.441 303.863C674.748 304.305 675.056 304.433 675.364 304.561C675.364 304.561 675.362 304.627 675.385 304.914C675.718 305.344 676.027 305.488 676.337 305.631C676.337 305.631 676.341 305.718 676.295 306.058C677.226 307.213 678.204 308.029 679.181 308.844C679.181 308.844 679.026 308.98 679.089 309.237C679.788 309.983 680.425 310.472 681.061 310.96C681.061 310.96 681.002 310.997 681.039 311.286C681.516 311.926 681.956 312.278 682.397 312.63C682.397 312.63 682.067 312.675 682.226 312.949C682.684 313.401 682.983 313.58 683.282 313.758C683.282 313.758 683.137 313.895 683.223 314.15C684.216 315.264 685.124 316.124 686.031 316.983C686.031 316.983 685.999 317 686.031 317.297C686.492 317.968 686.921 318.342 687.35 318.716C687.35 318.716 687.246 318.681 687.232 319.045C688.15 320.266 689.084 321.124 690.017 321.981C690.017 321.981 690 322 690.026 322.302C690.462 323.007 690.871 323.408 691.281 323.81C691.281 323.81 691.09 323.866 691.134 324.147C691.782 324.955 692.387 325.48 692.991 326.006C692.991 326.006 693 326 693.027 326.357C694.808 329.058 696.561 331.404 698.314 333.749C698.314 333.749 698.023 333.866 698.104 334.15C698.9 335.197 699.616 335.96 700.331 336.723C700.331 336.723 700.114 336.984 700.158 337.203C700.925 338.168 701.649 338.914 702.372 339.659C702.372 339.659 702.237 339.879 702.235 340.134C702.941 341.156 703.651 341.923 704.36 342.689C704.36 342.689 704.105 342.974 704.161 343.189C704.918 344.184 705.619 344.963 706.321 345.743C706.321 345.743 706.253 345.973 706.281 346.12C706.565 346.5 706.82 346.731 707.076 346.963C707.076 346.963 707 346.983 707.011 347.327C708.149 349.326 709.275 350.98 710.401 352.634C710.401 352.634 710.304 352.75 710.256 353.103C712.375 358.309 714.403 363.23 716.767 367.984C717.973 370.41 719.784 372.535 721.322 374.795C721.322 374.795 721.197 375.023 721.189 375.288C725.264 387.289 729.546 398.961 733.349 410.788C735.402 417.171 734.473 418.039 727.904 418.04C674.598 418.045 621.291 418.037 567.985 418.068C565.786 418.069 563.587 418.418 561.388 418.605C561.178 419.138 560.968 419.67 560.758 420.202C562.178 421.465 563.598 422.728 565.018 423.991C565.018 423.991 564.998 424 565.024 424.317C565.739 425.402 566.429 426.17 567.118 426.937C567.118 426.937 567.019 426.978 567.056 427.257C567.509 427.935 567.925 428.335 568.341 428.734C568.341 428.734 568.117 428.794 568.163 429.119C569.25 430.878 570.291 432.313 571.332 433.747C571.332 433.747 571.034 433.996 571.114 434.24C574.027 442.072 576.967 449.621 579.639 457.264C580.827 460.661 583.108 461.031 586.228 461.026C634.324 460.947 682.42 460.965 730.516 460.962C733.345 460.961 736.201 460.745 738.989 461.085C740.074 461.218 741.871 462.611 741.874 463.435C741.923 476.898 741.8 490.363 741.571 503.824C741.479 509.194 741.035 514.557 740.752 519.923C740.729 520.384 740.706 520.844 740.246 521.778C739.543 522.835 739.177 523.395 739.027 524.007C736.022 536.293 733.024 548.581 730.078 560.881C729.662 562.618 729.529 564.424 729.264 566.198C729.264 566.198 729.105 566.043 728.878 566.254C727.34 569.491 725.856 572.458 724.77 575.563C723.709 578.596 721.986 580.133 718.695 579.479C718.695 579.479 718.784 579.354 718.656 579.036C714.119 576.505 709.857 573.916 705.279 572.143C685.479 564.473 665.064 564.192 644.553 568.295C639.576 569.29 634.998 572.278 630.236 574.349C630.236 574.349 630.188 574.274 629.816 574.207C625.291 576.406 621.136 578.67 616.982 580.935C616.982 580.935 616.729 581.151 616.215 581.151C615.263 581.58 614.825 582.009 614.388 582.439C614.388 582.439 614.319 582.451 613.982 582.361C612.875 582.973 612.106 583.675 611.337 584.377C611.337 584.377 611.176 584.406 610.908 584.374C609.907 585.041 609.174 585.738 608.441 586.436C608.441 586.436 608.37 586.468 608.016 586.38C606.773 587.192 605.885 588.094 604.997 588.995C604.997 588.995 605 589 604.688 589.02C603.995 589.462 603.613 589.884 603.23 590.306C603.23 590.306 603.162 590.194 602.878 590.256C601.752 591.244 600.91 592.17 600.069 593.096C600.069 593.096 600.006 593.011 599.721 593.06C598.961 593.747 598.487 594.385 598.013 595.024C598.013 595.024 598 594.998 597.778 595.099C597.371 595.474 597.186 595.748 597 596.023C596.511 596.595 596.021 597.167 594.966 597.903C594.114 598.524 593.828 598.982 593.542 599.44C593.542 599.44 593.465 599.521 593.081 599.435C592.158 600.265 591.62 601.18 591.081 602.096C591.081 602.096 591.011 602.004 590.698 602.062C589.703 603.176 589.021 604.232 588.339 605.289C588.339 605.289 588.347 605.103 588.054 605.237C587.659 605.697 587.557 606.022 587.455 606.347C587.455 606.347 587.326 606.319 587.013 606.362C586.214 607.346 585.727 608.287 585.24 609.228C585.24 609.228 585.035 609.148 584.88 609.247C584.63 609.675 584.535 610.004 584.44 610.333C584.44 610.333 584.148 610.243 583.949 610.34C583.301 611.407 582.852 612.376 582.403 613.345C582.403 613.345 582.168 613.395 581.923 613.404C581.133 614.627 580.588 615.841 580.043 617.055C580.043 617.055 579.997 617.012 579.782 617.174C579.441 617.694 579.316 618.052 579.191 618.41C579.191 618.41 579.145 618.729 578.704 618.929C577.795 619.574 577.149 619.934 576.886 620.478C572 630.567 567.769 640.778 565.712 651.996C561.348 675.806 565.195 698.043 576.803 719.046C578.396 721.929 577.817 723.174 575.212 724.446C572.136 725.949 569.14 727.618 566.109 729.215C566.109 729.215 566.05 729.08 565.698 729.076C558.163 730.939 551.011 732.937 543.788 734.637C535.602 736.563 527.423 739.192 519.115 739.797C500.954 741.12 482.717 741.508 464.503 741.933C459.783 742.044 455.046 740.712 450.293 740.374C447.571 740.181 444.801 740.654 442.053 740.827C441.597 740.804 441.142 740.781 440.234 740.318C438.104 739.271 436.463 738.516 434.741 738.082C422.322 734.945 409.856 731.989 397.468 728.731C391.546 727.173 385.763 725.083 379.917 723.234C379.732 723.183 379.546 723.133 378.988 722.762C378.397 722.268 378.162 722.123 377.908 722.009C377.908 722.009 378.023 722.059 377.889 721.784C354.869 705.099 333.201 687.454 315.478 665.209C298.134 643.44 283.816 619.953 273.325 594.273C256.378 552.79 248.374 509.733 251.862 464.752C253.339 445.695 255.825 426.895 260.598 408.339C268.084 379.233 280.092 352.115 296.237 326.926C303.466 315.645 311.653 304.783 320.686 294.902C332.755 281.697 345.703 269.225 358.982 257.223C367.312 249.695 376.944 243.608 385.992 236.874C385.992 236.874 385.884 236.975 386.14 236.947C386.893 236.659 387.391 236.399 388.288 236.097C392.137 234.617 395.588 233.181 399.038 231.744C399.466 231.542 399.894 231.34 400.932 231.351C402.339 231.541 403.174 231.665 403.928 231.471C413.038 229.131 422.143 226.769 431.234 224.355C434.193 223.569 437.107 222.616 440.042 221.74C440.796 221.553 441.55 221.367 443.004 221.445C447.467 221.456 451.227 221.077 454.994 220.975C469.218 220.589 483.445 220.313 497.67 219.936C499.443 219.889 501.207 219.486 502.976 219.247C503.427 219.26 503.878 219.273 504.799 219.72C509.825 220.5 514.381 220.846 518.938 221.192C519.705 221.235 520.472 221.278 521.749 221.767C533.922 225.136 545.61 227.969 557.24 231.02C563.927 232.775 570.52 234.884 577.155 236.834C577.155 236.834 577.062 236.916 577.241 237.168C580.354 238.515 583.286 239.609 586.219 240.703C586.219 240.703 585.995 240.936 586.216 241.141C590.695 243.147 594.952 244.947 599.21 246.746C599.21 246.746 598.985 246.857 599.173 247.132C602.426 248.83 605.489 250.253 608.552 251.676C608.552 251.676 608.822 251.725 608.975 252.17C611.813 254.008 614.499 255.4 617.184 256.793C617.184 256.793 617.045 256.932 617.204 257.194C618.392 257.893 619.421 258.33 620.45 258.767ZM422.732 428.241C410.164 442.279 402.985 458.753 402.203 477.509C400.118 527.553 443.671 566.39 493.276 559.12C545.71 551.435 575.919 493.107 551.853 446.019C526.343 396.104 462.521 387.016 422.732 428.241Z" fill="url(#paint0_linear_9_1378)"/>
<path d="M385.601 236.816C376.944 243.608 367.312 249.695 358.982 257.223C345.702 269.225 332.755 281.697 320.686 294.901C311.653 304.783 303.466 315.645 296.237 326.925C280.092 352.115 268.084 379.233 260.598 408.339C255.825 426.895 253.339 445.695 251.862 464.752C248.374 509.733 256.378 552.79 273.325 594.273C283.816 619.953 298.134 643.44 315.478 665.209C333.201 687.454 354.869 705.098 377.864 721.841C367.281 716.854 356.127 712.291 345.975 706.088C286.246 669.589 246.506 617.747 227.703 550.122C200.69 452.966 232.615 348.445 309.085 282.673C330.887 263.921 355.122 249.344 381.431 238.013C382.646 237.49 383.949 237.172 385.601 236.816Z" fill="url(#paint1_linear_9_1378)"/>
<path d="M740.948 519.589C741.035 514.557 741.479 509.194 741.571 503.824C741.8 490.363 741.923 476.898 741.874 463.435C741.871 462.611 740.073 461.218 738.989 461.085C736.201 460.745 733.345 460.961 730.516 460.962C682.42 460.965 634.324 460.947 586.228 461.026C583.108 461.031 580.827 460.661 579.639 457.264C576.966 449.621 574.026 442.072 571.257 434.108C574.349 440.691 577.854 447.495 580.221 454.674C581.479 458.491 583.028 459.42 586.754 459.41C635.381 459.277 684.009 459.298 732.637 459.281C735.952 459.279 739.268 459.28 743.138 459.28C744.829 479.617 744.121 499.463 740.948 519.589Z" fill="#5486BD"/>
<path d="M564.92 423.637C563.598 422.728 562.178 421.465 560.758 420.202C560.968 419.67 561.178 419.137 561.388 418.605C563.587 418.418 565.786 418.069 567.985 418.068C621.291 418.037 674.598 418.045 727.904 418.04C734.473 418.039 735.402 417.171 733.349 410.788C729.546 398.961 725.264 387.289 721.234 375.166C725.832 387.043 730.416 399.291 734.883 411.582C735.723 413.892 736.096 416.373 736.873 419.548C678.868 419.548 621.172 419.548 562.46 419.548C563.662 421.449 564.241 422.366 564.92 423.637Z" fill="#5486BD"/>
<path d="M442.393 741.018C444.801 740.654 447.571 740.181 450.293 740.374C455.046 740.712 459.783 742.044 464.503 741.933C482.717 741.507 500.954 741.12 519.115 739.797C527.423 739.192 535.602 736.563 543.788 734.637C551.011 732.937 558.163 730.939 565.753 729.126C555.707 732.284 545.396 736.029 534.776 738.373C504.323 745.094 473.598 746.247 442.393 741.018Z" fill="#5486BD"/>
<path d="M566.496 729.199C569.14 727.618 572.136 725.949 575.212 724.446C577.817 723.174 578.396 721.928 576.803 719.045C565.195 698.043 561.348 675.806 565.712 651.995C567.769 640.778 572 630.567 576.886 620.477C577.149 619.933 577.795 619.574 578.603 619.055C571.236 634.104 565.927 649.86 565.628 667.066C565.294 686.302 569.271 704.377 579.358 720.927C579.779 721.619 580.145 722.345 580.903 723.717C576.038 725.614 571.46 727.398 566.496 729.199Z" fill="#5486BD"/>
<path d="M630.62 574.305C634.998 572.278 639.576 569.29 644.553 568.295C665.064 564.192 685.479 564.473 705.279 572.143C709.857 573.916 714.119 576.505 718.586 579.07C707.102 574.347 695.539 569.561 682.809 567.943C664.932 565.672 647.758 567.943 630.62 574.305Z" fill="#5486BD"/>
<path d="M380.14 723.491C385.763 725.083 391.546 727.173 397.468 728.731C409.855 731.989 422.322 734.945 434.741 738.082C436.463 738.516 438.104 739.271 439.914 740.195C425.415 736.946 410.737 733.564 396.181 729.718C390.76 728.286 385.626 725.77 380.14 723.491Z" fill="#5486BD"/>
<path d="M502.552 219.137C501.207 219.486 499.443 219.889 497.67 219.936C483.445 220.313 469.218 220.589 454.994 220.975C451.227 221.077 447.467 221.456 443.396 221.471C460.336 218.151 477.707 217.474 495.169 218.555C497.49 218.699 499.809 218.869 502.552 219.137Z" fill="#5486BD"/>
<path d="M576.943 236.558C570.52 234.884 563.927 232.775 557.24 231.02C545.61 227.969 533.922 225.136 522.106 221.913C540.932 223.817 558.988 229.464 576.943 236.558Z" fill="#5486BD"/>
<path d="M729.525 565.966C729.529 564.424 729.662 562.618 730.078 560.881C733.024 548.581 736.022 536.293 739.027 524.007C739.177 523.395 739.543 522.835 740.113 522.1C736.874 536.544 733.33 551.139 729.525 565.966Z" fill="#5486BD"/>
<path d="M439.658 221.641C437.107 222.616 434.193 223.569 431.234 224.355C422.143 226.769 413.038 229.131 403.928 231.471C403.174 231.665 402.339 231.541 401.29 231.327C413.784 227.908 426.53 224.725 439.658 221.641Z" fill="#5486BD"/>
<path d="M721.281 374.421C719.784 372.535 717.973 370.41 716.767 367.984C714.403 363.23 712.375 358.309 710.327 353.077C714.043 359.813 717.642 366.93 721.281 374.421Z" fill="#5486BD"/>
<path d="M718.895 579.73C721.986 580.133 723.709 578.596 724.77 575.563C725.856 572.458 727.34 569.491 728.973 566.31C727.479 571.431 725.663 576.705 723.697 582.414C721.649 581.331 720.372 580.656 718.895 579.73Z" fill="#5486BD"/>
<path d="M518.598 221.002C514.381 220.846 509.825 220.5 505.116 219.841C509.395 219.955 513.827 220.383 518.598 221.002Z" fill="#5486BD"/>
<path d="M617.336 580.88C621.136 578.67 625.291 576.406 629.835 574.237C626.046 576.496 621.868 578.66 617.336 580.88Z" fill="#5486BD"/>
<path d="M599.01 246.471C594.952 244.947 590.695 243.147 586.317 241.015C590.401 242.521 594.605 244.359 599.01 246.471Z" fill="#5486BD"/>
<path d="M398.689 231.736C395.588 233.181 392.137 234.618 388.034 236.105C387.043 236.147 386.705 236.139 386.367 236.131C390.358 234.663 394.348 233.196 398.689 231.736Z" fill="#5486BD"/>
<path d="M632.163 266.273C629.354 264.8 626.378 263.054 623.403 260.95C626.268 262.395 629.132 264.198 632.163 266.273Z" fill="#5486BD"/>
<path d="M608.328 251.411C605.489 250.253 602.426 248.83 599.277 247.06C602.161 248.191 605.132 249.668 608.328 251.411Z" fill="#5486BD"/>
<path d="M617.003 256.512C614.499 255.4 611.813 254.008 609.07 252.269C611.616 253.358 614.218 254.795 617.003 256.512Z" fill="#5486BD"/>
<path d="M669.01 297.593C667.116 296.119 665.112 294.332 663.09 292.19C665.015 293.651 666.958 295.466 669.01 297.593Z" fill="#5486BD"/>
<path d="M586.007 240.436C583.286 239.609 580.354 238.515 577.259 237.108C579.996 237.92 582.896 239.045 586.007 240.436Z" fill="#5486BD"/>
<path d="M657.213 286.381C655.258 284.997 653.178 283.311 651.074 281.276C653.062 282.645 655.075 284.361 657.213 286.381Z" fill="#5486BD"/>
<path d="M698.234 333.415C696.561 331.404 694.808 329.059 693.024 326.361C694.714 328.366 696.434 330.723 698.234 333.415Z" fill="#5486BD"/>
<path d="M710.33 352.306C709.275 350.98 708.149 349.326 707.04 347.301C708.125 348.613 709.192 350.296 710.33 352.306Z" fill="#5486BD"/>
<path d="M571.282 433.412C570.291 432.313 569.25 430.878 568.278 429.083C569.309 430.173 570.27 431.626 571.282 433.412Z" fill="#5486BD"/>
<path d="M644.772 275.771C643.647 275.263 642.368 274.478 641.045 273.343C642.207 273.827 643.412 274.661 644.772 275.771Z" fill="#5486BD"/>
<path d="M605.3 588.936C605.885 588.094 606.773 587.192 608.008 586.417C607.438 587.322 606.521 588.099 605.3 588.936Z" fill="#5486BD"/>
<path d="M689.946 321.677C689.083 321.124 688.15 320.266 687.291 319.053C688.201 319.589 689.038 320.481 689.946 321.677Z" fill="#5486BD"/>
<path d="M679.093 308.545C678.204 308.029 677.226 307.213 676.332 306.035C677.278 306.531 678.141 307.389 679.093 308.545Z" fill="#5486BD"/>
<path d="M588.615 605.154C589.021 604.232 589.703 603.176 590.743 602.097C590.365 603.057 589.628 604.038 588.615 605.154Z" fill="#5486BD"/>
<path d="M580.307 616.876C580.588 615.841 581.133 614.627 582.043 613.4C581.796 614.49 581.184 615.593 580.307 616.876Z" fill="#5486BD"/>
<path d="M685.946 316.678C685.124 316.124 684.216 315.265 683.27 314.062C684.108 314.604 684.985 315.488 685.946 316.678Z" fill="#5486BD"/>
<path d="M600.371 593.005C600.91 592.17 601.752 591.244 602.94 590.278C602.415 591.13 601.545 592.022 600.371 593.005Z" fill="#5486BD"/>
<path d="M700.263 336.42C699.616 335.96 698.9 335.197 698.25 334.085C698.942 334.53 699.568 335.323 700.263 336.42Z" fill="#5486BD"/>
<path d="M585.513 609.091C585.727 608.287 586.214 607.346 587.057 606.412C586.872 607.263 586.329 608.108 585.513 609.091Z" fill="#5486BD"/>
<path d="M611.632 584.308C612.106 583.675 612.875 582.973 613.988 582.396C613.53 583.093 612.729 583.667 611.632 584.308Z" fill="#5486BD"/>
<path d="M635.303 268.476C634.457 268.284 633.437 267.815 632.389 266.975C633.284 267.135 634.206 267.668 635.303 268.476Z" fill="#5486BD"/>
<path d="M706.254 345.44C705.619 344.963 704.918 344.184 704.3 343.059C704.984 343.521 705.586 344.329 706.254 345.44Z" fill="#5486BD"/>
<path d="M704.293 342.389C703.651 341.923 702.941 341.157 702.324 340.042C703.019 340.492 703.623 341.29 704.293 342.389Z" fill="#5486BD"/>
<path d="M702.292 339.363C701.649 338.914 700.925 338.168 700.272 337.073C700.965 337.504 701.589 338.285 702.292 339.363Z" fill="#5486BD"/>
<path d="M620.26 258.494C619.421 258.33 618.392 257.893 617.254 257.109C618.12 257.248 619.095 257.734 620.26 258.494Z" fill="#5486BD"/>
<path d="M591.352 601.977C591.62 601.18 592.158 600.265 593.053 599.483C592.813 600.364 592.218 601.111 591.352 601.977Z" fill="#5486BD"/>
<path d="M608.732 586.348C609.174 585.738 609.907 585.04 610.982 584.339C610.557 584.977 609.79 585.618 608.732 586.348Z" fill="#5486BD"/>
<path d="M567.056 426.631C566.429 426.17 565.739 425.402 565.03 424.308C565.672 424.762 566.333 425.543 567.056 426.631Z" fill="#5486BD"/>
<path d="M709.042 608.622C708.458 608.536 707.786 608.15 707.056 607.449C707.65 607.531 708.302 607.927 709.042 608.622Z" fill="#245E9B"/>
<path d="M582.666 613.185C582.852 612.376 583.301 611.407 584.086 610.41C583.923 611.263 583.426 612.145 582.666 613.185Z" fill="#5486BD"/>
<path d="M648.125 278.47C647.539 278.366 646.83 277.991 646.079 277.279C646.691 277.361 647.346 277.78 648.125 278.47Z" fill="#5486BD"/>
<path d="M680.98 310.672C680.425 310.472 679.788 309.983 679.155 309.158C679.738 309.342 680.319 309.863 680.98 310.672Z" fill="#5486BD"/>
<path d="M692.941 325.711C692.387 325.48 691.782 324.955 691.216 324.093C691.801 324.309 692.346 324.863 692.941 325.711Z" fill="#5486BD"/>
<path d="M639.159 271.393C638.57 271.302 637.85 270.946 637.086 270.248C637.705 270.313 638.366 270.72 639.159 271.393Z" fill="#5486BD"/>
<path d="M623.162 260.261C622.585 260.232 621.854 259.965 621.055 259.367C621.66 259.364 622.334 259.693 623.162 260.261Z" fill="#5486BD"/>
<path d="M598.293 594.926C598.487 594.385 598.961 593.747 599.764 593.09C599.585 593.657 599.079 594.243 598.293 594.926Z" fill="#5486BD"/>
<path d="M593.788 599.336C593.828 598.982 594.114 598.524 594.713 598.034C594.695 598.413 594.365 598.823 593.788 599.336Z" fill="#5486BD"/>
<path d="M682.315 312.36C681.956 312.278 681.516 311.926 681.06 311.257C681.44 311.324 681.837 311.707 682.315 312.36Z" fill="#5486BD"/>
<path d="M687.278 318.437C686.921 318.342 686.492 317.968 686.041 317.282C686.415 317.366 686.81 317.762 687.278 318.437Z" fill="#5486BD"/>
<path d="M691.224 323.524C690.871 323.409 690.462 323.007 690.036 322.295C690.402 322.403 690.784 322.82 691.224 323.524Z" fill="#5486BD"/>
<path d="M603.507 590.235C603.612 589.884 603.995 589.462 604.686 589.018C604.591 589.385 604.187 589.774 603.507 590.235Z" fill="#5486BD"/>
<path d="M614.682 582.367C614.825 582.009 615.263 581.58 616.051 581.184C615.927 581.576 615.452 581.936 614.682 582.367Z" fill="#5486BD"/>
<path d="M673.339 302.253C672.986 302.197 672.535 301.886 672.06 301.263C672.438 301.299 672.84 301.649 673.339 302.253Z" fill="#5486BD"/>
<path d="M650.938 280.691C650.519 280.712 649.97 280.477 649.377 279.928C649.825 279.887 650.317 280.161 650.938 280.691Z" fill="#5486BD"/>
<path d="M640.872 272.743C640.468 272.756 639.929 272.514 639.326 271.967C639.753 271.938 640.245 272.213 640.872 272.743Z" fill="#5486BD"/>
<path d="M662.011 290.691C661.581 290.689 661.034 290.437 660.521 289.86C661 289.837 661.448 290.139 662.011 290.691Z" fill="#5486BD"/>
<path d="M386.14 236.249C386.705 236.139 387.043 236.147 387.635 236.147C387.391 236.399 386.893 236.659 386.091 236.891C385.828 236.699 385.871 236.533 386.14 236.249Z" fill="#1C5487"/>
<path d="M568.279 428.449C567.925 428.334 567.509 427.935 567.092 427.217C567.467 427.32 567.843 427.742 568.279 428.449Z" fill="#5486BD"/>
<path d="M702.182 736.162C702.111 735.926 702.34 735.609 702.832 735.16C702.891 735.378 702.687 735.729 702.182 736.162Z" fill="#245E9B"/>
<path d="M584.656 610.21C584.535 610.004 584.63 609.675 584.989 609.265C585.242 609.535 585.115 609.835 584.656 610.21Z" fill="#5486BD"/>
<path d="M377.95 722.247C378.162 722.123 378.397 722.268 378.749 722.599C378.538 722.826 378.24 722.735 377.95 722.247Z" fill="#1C5487"/>
<path d="M579.427 618.245C579.316 618.052 579.441 617.695 579.812 617.181C579.927 617.377 579.795 617.729 579.427 618.245Z" fill="#5486BD"/>
<path d="M649.209 279.39C648.994 279.502 648.667 279.389 648.274 279.006C648.505 278.879 648.801 279.023 649.209 279.39Z" fill="#5486BD"/>
<path d="M706.032 606.674C705.831 606.738 705.509 606.519 705.042 606.037C705.236 605.98 705.573 606.185 706.032 606.674Z" fill="#245E9B"/>
<path d="M587.668 606.237C587.557 606.022 587.659 605.697 588.035 605.328C588.273 605.619 588.131 605.9 587.668 606.237Z" fill="#5486BD"/>
<path d="M645.955 276.737C645.714 276.93 645.43 276.777 645.087 276.292C645.26 276.22 645.554 276.364 645.955 276.737Z" fill="#5486BD"/>
<path d="M597.24 595.935C597.186 595.748 597.371 595.474 597.791 595.105C597.844 595.289 597.662 595.568 597.24 595.935Z" fill="#5486BD"/>
<path d="M658.252 287.311C658.032 287.424 657.706 287.325 657.352 286.947C657.656 286.704 657.93 286.847 658.252 287.311Z" fill="#5486BD"/>
<path d="M659.283 288.261C659.056 288.365 658.737 288.272 658.441 287.898C658.765 287.67 659.008 287.819 659.283 288.261Z" fill="#5486BD"/>
<path d="M660.294 289.195C660.068 289.301 659.756 289.225 659.488 288.874C659.812 288.648 660.037 288.786 660.294 289.195Z" fill="#5486BD"/>
<path d="M670.025 298.685C669.825 298.747 669.537 298.561 669.162 298.125C669.362 298.063 669.649 298.25 670.025 298.685Z" fill="#5486BD"/>
<path d="M670.999 299.706C670.799 299.764 670.519 299.571 670.153 299.133C670.35 299.076 670.634 299.266 670.999 299.706Z" fill="#5486BD"/>
<path d="M707.041 346.702C706.82 346.731 706.565 346.5 706.294 346.001C706.522 345.97 706.764 346.206 707.041 346.702Z" fill="#5486BD"/>
<path d="M671.972 300.727C671.777 300.783 671.5 300.593 671.133 300.162C671.325 300.107 671.607 300.294 671.972 300.727Z" fill="#5486BD"/>
<path d="M683.219 313.516C682.983 313.58 682.684 313.401 682.392 312.943C682.748 312.748 683 312.951 683.219 313.516Z" fill="#5486BD"/>
<path d="M676.258 305.407C676.027 305.488 675.718 305.344 675.417 304.923C675.755 304.715 676.006 304.894 676.258 305.407Z" fill="#5486BD"/>
<path d="M675.289 304.352C675.056 304.433 674.748 304.305 674.477 303.902C674.817 303.706 675.049 303.879 675.289 304.352Z" fill="#5486BD"/>
<path d="M674.3 303.268C674.073 303.362 673.763 303.261 673.491 302.887C673.819 302.677 674.049 302.83 674.3 303.268Z" fill="#5486BD"/>
</g>
<defs>
<linearGradient id="paint0_linear_9_1378" x1="496.472" y1="219.247" x2="496.472" y2="741.94" gradientUnits="userSpaceOnUse">
<stop stop-color="#03BFDC"/>
<stop offset="1" stop-color="#007BFF"/>
</linearGradient>
<linearGradient id="paint1_linear_9_1378" x1="301.919" y1="236.816" x2="301.919" y2="721.841" gradientUnits="userSpaceOnUse">
<stop stop-color="#03BFDC"/>
<stop offset="1" stop-color="#007BFF"/>
</linearGradient>
<clipPath id="clip0_9_1378">
<rect width="960" height="960" fill="white"/>
</clipPath>
</defs>
</svg>
