<svg width="800" height="800" viewBox="0 0 800 800" fill="none" xmlns="http://www.w3.org/2000/svg">
<g clip-path="url(#clip0_4_36)">
<path d="M296.667 178.699C372.146 178.698 447.425 178.698 522.763 178.698C577.992 178.698 622.763 223.47 622.763 278.698C622.763 360.033 622.763 441.321 622.763 522.658C622.763 577.886 577.992 622.658 522.763 622.658C441.595 622.658 360.442 622.658 279.226 622.658C223.998 622.658 179.226 577.886 179.226 522.658C179.226 441.383 179.226 360.092 179.226 278.699C179.226 223.471 223.997 178.699 279.226 178.699C285.031 178.699 290.845 178.699 296.667 178.699ZM256.778 272.195C246.095 282.713 246.026 299.92 256.624 310.524C268.929 322.835 281.198 335.111 293.455 347.374C323.552 377.487 323.578 426.285 293.512 456.429C284.072 465.894 274.626 475.364 265.184 484.831C250.713 499.341 250.368 522.454 264.887 536.916C279.448 551.42 303.411 551.698 317.844 537.067C327.387 527.394 336.946 517.705 346.527 507.992C376.715 477.391 426.064 477.276 456.394 507.737C465.92 517.303 475.412 526.836 484.873 536.338C499.273 550.8 522.578 550.946 537.047 536.552C551.536 522.136 551.668 498.608 537.229 484.142C527.599 474.494 517.964 464.842 508.323 455.182C478.094 424.897 478.057 375.866 508.24 345.536C517.785 335.944 527.323 326.36 536.846 316.79C551.182 302.384 551.377 279.3 537.038 264.898C522.598 250.393 498.916 250.205 484.489 264.723C474.91 274.362 465.313 284.02 455.685 293.709C425.363 324.221 375.964 324.106 345.784 293.453C338.865 286.424 331.948 279.4 325.032 272.374C306.291 253.34 275.619 253.259 256.778 272.195Z" fill="url(#paint0_linear_4_36)"/>
</g>
<defs>
<linearGradient id="paint0_linear_4_36" x1="400.995" y1="178.698" x2="400.995" y2="622.658" gradientUnits="userSpaceOnUse">
<stop stop-color="#03BFDC"/>
<stop offset="1" stop-color="#007BFF"/>
</linearGradient>
<clipPath id="clip0_4_36">
<rect width="800" height="800" fill="white"/>
</clipPath>
</defs>
</svg>
