<svg width="800" height="800" viewBox="0 0 800 800" fill="none" xmlns="http://www.w3.org/2000/svg">
<path d="M539.879 596C539.541 595.102 539.039 593.882 539.038 592.663C538.996 522.878 538.995 453.094 539.006 383.309C539.006 382.277 539.225 381.244 539.595 380C539.902 387.456 540.001 395.123 540 402.791C539.993 467.087 539.968 531.382 539.879 596Z" fill="#36465D"/>
<path d="M570 603.386C570.014 617.579 557.5 631.596 543.024 632.421C529.564 633.189 516.04 632.97 502.544 632.974C423.266 632.998 343.988 632.955 264.71 632.947C246.785 632.945 233.194 620.971 232.133 603.464C232.461 601.931 232.618 600.904 232.618 599.877C232.634 530.619 232.64 461.361 232.614 392.104C232.614 390.896 232.214 389.688 232 388.48C232.575 373.551 246.515 360.641 262.462 360.312C267.519 360.208 272.578 360.205 278.279 360.101C294.713 360.03 310.506 360.015 326.298 360C327.439 360.092 328.581 360.266 329.722 360.266C399.224 360.258 468.727 360.235 538.229 360.216C554.914 360.212 568.373 371.9 569.879 388.395C569.547 389.917 569.378 390.942 569.378 391.967C569.368 461.229 569.37 530.492 569.402 599.754C569.403 600.965 569.792 602.175 570 603.386ZM380.589 560.093C389.556 560.184 398.524 560.284 407.492 560.337C407.873 560.339 408.258 559.909 409.084 559.537C409.387 559.586 409.69 559.634 410.199 560.004C410.602 559.897 411.006 559.789 411.995 559.527C413.403 559.572 414.81 559.618 416.605 560.084C419.03 559.948 421.456 559.811 424.306 559.366C424.365 558.824 424.593 558.236 424.459 557.746C422.816 551.741 421.109 545.754 419.441 539.756C417.261 531.916 415.101 524.069 412.944 516.272C433.444 508.196 440.171 489.032 436.782 473.661C433.306 457.897 418.933 445.85 402.942 445.284C385.722 444.675 370.698 455.391 366.008 471.857C363.83 479.502 364.087 487.192 367.069 494.617C371.237 504.993 378.635 512.206 389.336 516.194C385.345 530.634 381.425 544.82 377.454 559.19C378.444 559.362 379.316 559.514 380.589 560.093Z" fill="url(#paint0_linear_3_12)"/>
<path d="M325.595 359.65C309.695 359.989 293.818 360.004 277.609 359.999C277.27 336.411 276.544 312.816 277.406 289.279C279.283 238.026 303.97 201.06 349.752 178.362C366.852 169.883 385.35 166.263 404.385 167.124C444.642 168.945 476.958 186.341 500.92 218.683C515.365 238.181 523.09 260.325 523.98 284.665C524.378 295.524 518.705 304.166 509.164 308.078C499.973 311.846 489.087 309.433 481.97 302.029C477.835 297.727 475.895 292.515 475.661 286.609C474.976 269.318 468.497 254.368 457.09 241.545C443.871 226.684 427.232 218.478 407.455 216.345C376.829 213.042 340.253 231.594 328.736 270.148C326.738 276.835 325.826 284.062 325.716 291.06C325.358 313.81 325.604 336.57 325.595 359.65Z" fill="url(#paint1_linear_3_12)"/>
<path d="M231.104 389C231.462 389.888 231.977 391.094 231.978 392.299C232.011 461.437 232.003 530.575 231.982 599.712C231.982 600.737 231.78 601.762 231.428 603C231.12 586.629 231.009 570.044 231.004 553.46C230.989 498.746 231.013 444.032 231.104 389Z" fill="#36465D"/>
<path d="M381 559.369C389.767 559.025 398.728 558.974 408 559.009C407.94 559.41 407.569 560.003 407.2 560C398.531 559.927 389.863 559.789 381 559.369Z" fill="#3B4B63"/>
<path d="M417 559.932C419.105 559.082 421.4 558.929 424 559.025C421.933 559.727 419.561 560.178 417 559.932Z" fill="#3B4B63"/>
<path d="M410 559.943C410.197 559.103 410.49 558.939 411 559.018C410.843 559.713 410.469 560.166 410 559.943Z" fill="#3B4B63"/>
<defs>
<linearGradient id="paint0_linear_3_12" x1="401" y1="360" x2="401" y2="633" gradientUnits="userSpaceOnUse">
<stop stop-color="#03BFDC"/>
<stop offset="1" stop-color="#007BFF"/>
</linearGradient>
<linearGradient id="paint1_linear_3_12" x1="400.5" y1="167" x2="400.5" y2="360" gradientUnits="userSpaceOnUse">
<stop stop-color="#03BFDC"/>
<stop offset="1" stop-color="#007BFF"/>
</linearGradient>
</defs>
</svg>
