<svg width="800" height="800" viewBox="0 0 800 800" fill="none" xmlns="http://www.w3.org/2000/svg">
<path d="M444.1 344.93C423.53 367.723 403.18 390.317 382.772 412.857C381.016 414.796 380.867 416.145 382.87 418.041C386.285 421.273 389.442 424.778 393.23 428.71C465.867 348.252 538.078 268.266 610.242 188.33C612.532 189.659 611.864 191.371 611.867 192.744C611.92 213.855 611.908 234.966 611.9 256.076C611.897 261.846 610.104 267.027 606.4 271.438C598.007 281.431 589.472 291.307 581.129 301.341C579.138 303.735 577.594 303.827 575.331 301.804C570.985 297.918 566.518 294.162 562.013 290.459C557.887 287.068 556.004 287.236 552.532 291.187C548.958 295.253 545.361 299.308 541.972 303.528C539.11 307.091 539.415 309.903 542.813 312.948C548.182 317.761 553.642 322.473 559.024 327.192C559.083 329.24 557.657 330.291 556.584 331.485C548.326 340.675 539.946 349.758 531.811 359.055C529.629 361.55 528.157 362.072 525.445 359.761C520.273 355.354 514.441 351.764 509.414 347.143C506.618 344.573 504.052 344.945 501.544 347.811C493.592 356.903 485.627 365.986 477.493 374.915C475.029 377.621 475.066 379.594 477.943 381.724C479.054 382.547 479.986 383.607 481.064 384.48C486.504 388.889 486.734 387.89 481.513 393.808C476.094 399.951 470.657 406.084 465.057 412.062C462.316 414.988 462.352 417.272 465.69 419.518C466.49 420.057 467.077 420.941 467.909 421.398C474.026 424.758 475.033 430.1 474.583 436.535C473.99 445.016 468.606 450.806 460.027 451.06C447.958 451.416 435.884 451.649 423.815 452.004C421.749 452.064 419.623 452.215 417.646 452.764C413.161 454.009 412.211 456.618 414.164 460.844C423.981 482.092 427.936 504.276 425.422 527.676C420.848 570.261 400.041 602.822 363.804 624.824C333.227 643.389 299.849 647.94 265.205 638.177C223.563 626.441 193.973 600.319 178.911 559.814C161.918 514.116 169.82 471.508 200.206 433.501C221.07 407.403 248.83 392.578 281.685 387.577C300.012 384.787 318.249 386.271 335.941 392.063C339.981 393.385 342.373 392.702 345.238 389.512C389.214 340.544 433.359 291.728 477.409 242.827C495.995 222.194 514.519 201.504 532.929 180.715C539.511 173.283 547.349 169.783 557.385 169.53C570.53 169.197 583.648 167.742 596.775 166.746C599.089 166.57 601.403 166.024 603.681 166.863C604.062 168.484 602.882 169.233 602.089 170.111C576.13 198.864 550.158 227.605 524.184 256.345C497.56 285.804 470.931 315.26 444.1 344.93ZM239.934 567.961C249.928 581.261 263.325 586.462 279.489 583.519C299.248 579.921 313.178 560.548 310.368 540.447C307.619 520.784 291.28 505.414 270.896 506.382C240.112 507.843 222.112 541.018 239.934 567.961Z" fill="url(#paint0_linear_8_1280)"/>
<defs>
<linearGradient id="paint0_linear_8_1280" x1="391.034" y1="166.409" x2="391.034" y2="643.183" gradientUnits="userSpaceOnUse">
<stop stop-color="#03BFDC"/>
<stop offset="1" stop-color="#007BFF"/>
</linearGradient>
</defs>
</svg>
