<svg width="800" height="800" viewBox="0 0 800 800" fill="none" xmlns="http://www.w3.org/2000/svg">
<path d="M480 555.623C489.027 555.622 497.637 555.686 506.247 555.606C519.422 555.483 528.014 547.001 528.941 533.936C530.403 513.331 532.099 492.742 533.844 472.159C534.62 463.002 534.784 463.016 544.129 463.018C551.323 463.018 558.517 463.018 565.935 463.018C566.763 468.966 565.437 474.566 565.031 480.146C563.675 498.8 561.754 517.412 560.229 536.054C558.264 560.066 544.254 578.411 522.672 585.04C515.924 587.113 508.954 587.191 502.049 587.236C471.366 587.434 440.681 587.459 409.997 587.42C386.689 587.39 363.381 587.074 340.072 587.061C320.101 587.049 300.121 587.698 280.159 587.308C256.418 586.846 232.675 587.572 208.947 586.876C183.52 586.13 160.784 562.367 160.54 536.977C159.774 457.132 159.686 377.285 159.615 297.437C159.606 286.482 159.096 275.545 159.643 264.57C160.918 238.986 184.163 216.437 209.785 216.417C239.643 216.394 269.502 216.392 299.36 216.422C326.037 216.448 347.989 235.335 351.875 261.74C352.365 265.068 354.404 264.873 356.63 264.875C369.129 264.889 381.628 264.88 394.126 264.872C404.542 264.865 414.96 264.724 425.372 264.909C428.818 264.97 430.962 263.771 432.941 260.991C447.075 241.137 465.973 228.469 489.979 223.59C535.069 214.427 580.51 241.359 594.228 285.453C595.215 288.627 596.228 291.828 596.784 295.092C597.326 298.279 598.936 299.412 602.046 299.759C624.677 302.291 642.566 312.651 654.33 332.467C663.251 347.492 665.758 363.822 662.727 380.949C657.113 412.681 632.837 431.128 609.471 435.61C604.703 436.524 599.858 436.867 594.979 436.863C549.845 436.827 504.711 436.801 459.578 436.91C455.843 436.919 455.133 435.799 455.784 432.31C459.693 411.341 463.488 390.351 467.203 369.347C471.613 344.412 492.554 326.617 517.749 326.545C522.61 326.531 527.472 326.468 532.331 326.561C535.124 326.615 536.217 325.435 536.465 322.644C537.545 310.438 532.484 301.489 522.218 297.699C519.133 296.56 515.937 296.604 512.759 296.596C450.279 296.428 387.8 296.262 325.32 296.23C321.715 296.228 320.469 295.427 320.619 291.634C320.93 283.73 320.775 275.806 320.717 267.89C320.636 256.776 312.153 247.906 301.027 247.852C271.031 247.705 241.033 247.676 211.037 247.857C199.559 247.926 191.146 256.772 191.134 268.187C191.098 302.211 190.655 336.244 191.252 370.258C192.183 423.302 191.991 476.347 191.767 529.387C191.689 547.821 201.172 555.947 218.366 555.877C305.437 555.524 392.511 555.66 480 555.623Z" fill="url(#paint0_linear_1_5)"/>
<path d="M428.787 525.454C423.6 530.715 417.507 532.674 410.497 532.66C378.015 532.593 345.531 532.504 313.05 532.711C301.063 532.788 289.162 523.808 288.687 510.448C287.844 486.716 288.059 462.98 288.305 439.253C288.409 429.264 293.827 421.944 303.272 418.182C305.838 417.16 306.488 415.692 306.537 413.192C306.711 404.321 306.506 395.461 307.113 386.574C308.701 363.342 328.539 341.737 351.598 337.96C378.068 333.625 400.273 346.765 410.157 365.323C414.396 373.283 416.663 381.807 416.893 390.802C417.08 398.154 417.017 405.516 416.902 412.871C416.862 415.458 417.84 416.912 420.181 417.99C430.836 422.892 436.085 431.21 436.029 443.033C435.926 464.548 435.984 486.065 436.027 507.581C436.041 514.438 433.852 520.357 428.787 525.454ZM336.132 406.233C336.138 408.174 336.348 410.141 336.107 412.052C335.634 415.808 337.501 417.079 340.865 417.003C343.911 416.935 346.956 416.761 350.002 416.754C360.957 416.728 371.913 416.75 382.869 416.759C385.186 416.761 387.641 416.694 387.73 413.607C387.988 404.627 389.249 395.532 386.882 386.717C383.64 374.639 372.536 366.826 360.436 367.498C348.206 368.177 338.989 376.652 336.671 389.224C335.679 394.605 336.447 400.017 336.132 406.233ZM352.005 454.883C344.11 462.568 344.125 472.027 352.197 479.557C353.823 481.073 354.396 482.413 353.772 484.611C352.639 488.6 351.95 492.715 350.833 496.71C350.058 499.478 350.965 500.722 353.702 500.75C358.969 500.805 364.237 500.791 369.505 500.814C372.504 500.828 373.46 499.221 372.838 496.501C372.069 493.132 371.446 489.699 370.308 486.451C369.129 483.085 370.001 480.868 372.495 478.404C378.748 472.229 379.102 463.276 373.747 457.042C368.243 450.634 359.892 449.642 352.005 454.883Z" fill="url(#paint1_linear_1_5)"/>
<defs>
<linearGradient id="paint0_linear_1_5" x1="411.672" y1="216.399" x2="411.672" y2="587.436" gradientUnits="userSpaceOnUse">
<stop stop-color="#03BFDC"/>
<stop offset="1" stop-color="#007BFF"/>
</linearGradient>
<linearGradient id="paint1_linear_1_5" x1="362.057" y1="337.129" x2="362.057" y2="532.712" gradientUnits="userSpaceOnUse">
<stop stop-color="#03BFDC"/>
<stop offset="1" stop-color="#007BFF"/>
</linearGradient>
</defs>
</svg>
